<svg width="128" height="128" viewBox="0 0 24 24" fill="none" stroke="white" stroke-width="1.5" stroke-linecap="round" stroke-linejoin="round" xmlns="http://www.w3.org/2000/svg">
  <path d="m 12.04248,6.4195578 0,-1.4948538" style="stroke-width: 1.12264" />
  <circle cx="12.032182" cy="3.5654316" r="1.25" style="stroke-width: 0.9375; fill: white" stroke="white" />
  
  <g transform="translate(6, 7.5) scale(0.5)" stroke-width="3" fill="none">
    <rect x="3" y="11" width="18" height="11" rx="2" ry="2" />
    <path d="M7 11V7a5 5 0 0 1 10 0v4" />
  </g>
  
  <path d="m 17.050704,10.556693 h 3.680672" style="stroke-width: 1.12264" />
  <path d="M 20.723331,8.4240271 V 10.384513" style="stroke-width: 1.12264" />
  <circle cx="20.720903" cy="6.8013139" r="1.25" style="stroke-width: 0.9375; fill: white" stroke="white" />
  
  <path d="m 18.792883,15.723151 h 1.600035" style="stroke-width: 1.12264" />
  <circle cx="21.772217" cy="15.66239" r="1.25" style="stroke-width: 0.9375; fill: white" stroke="white" />
  
  <path d="M 6.6021094,10.126422 H 4.6416235" style="stroke-width: 1.12264" />
  <path d="M 4.6370945,10.048429 V 8.8203761 m 0,-1.6751297 0,-1.3181655" style="stroke-width: 1.12264" />
  <circle cx="4.6195264" cy="4.2833138" r="1.25" style="stroke-width: 0.9375; fill: white" stroke="white" />
  
  <path d="M 5.2822257,13.436287 H 3.3217398" style="stroke-width: 1.12264" />
  <path d="M 3.155036,15.393559 V 13.433073" style="stroke-width: 1.12264" />
  <circle cx="3.1473207" cy="16.790983" r="1.25" style="stroke-width: 0.9375; fill: white" stroke="white" />
  
  <path d="M 10.889324,21.769021 V 20.487582" style="stroke-width: 1.12264" />
  <circle cx="7.309669" cy="21.719124" r="1.25" style="stroke-width: 0.9375; fill: white" stroke="white" />
  <path d="M 10.680141,21.808287 H 8.7196553" style="stroke-width: 1.12264" />
  
  <path d="M 13.953154,21.769021 V 20.402623" style="stroke-width: 1.12264" />
  <path d="m 18.429828,21.808287 h -1.36121 m -1.701145,0 h -1.421285" style="stroke-width: 1.12264" />
  <circle cx="19.909889" cy="21.639862" r="1.25" style="stroke-width: 0.9375; fill: white" stroke="white" />
</svg>